<svg xmlns="http://www.w3.org/2000/svg" viewBox="0 0 65 65"><path fill="#387bfe" d="M44.10119 7.3006H24.80108c-1.12175 0-2.03321.91146-2.03321 2.03321v3.91609c0 1.12175.91146 2.03321 2.03321 2.03321h19.30011c1.12175 0 2.03321-.91146 2.03321-2.03321V9.33381C46.1344 8.21206 45.22293 7.3006 44.10119 7.3006zM44.10119 13.27997L24.77101 13.2499l.03008-3.94617h19.30011c.02005 0 .03008.02005.03008.03008L44.10119 13.27997zM27.77246 25.92735c-.5536 0-1.00156.44797-1.00156 1.00156 0 .5536.44796 1.00157 1.00156 1.00157h18.00175c.5536 0 1.00156-.44797 1.00156-1.00157 0-.5536-.44796-1.00156-1.00156-1.00156H27.77246zM41.07644 31.07994H27.77246c-.5536 0-1.00156.44797-1.00156 1.00157 0 .5536.44796 1.00156 1.00156 1.00156h13.30398c.5536 0 1.00157-.44797 1.00157-1.00156C42.07801 31.5279 41.63004 31.07994 41.07644 31.07994zM35.69988 45.25149h-7.92742c-.5536 0-1.00156.44796-1.00156 1.00156s.44796 1.00156 1.00156 1.00156h7.92742c.5536 0 1.00156-.44796 1.00156-1.00156S36.25348 45.25149 35.69988 45.25149zM33.63122 50.40407h-5.85876c-.5536 0-1.00156.44796-1.00156 1.00156s.44796 1.00156 1.00156 1.00156h5.85876c.5536 0 1.00156-.44796 1.00156-1.00156S34.18482 50.40407 33.63122 50.40407zM19.44267 22.52439h-8.27293c-1.56244 0-2.84441 1.27201-2.84441 2.84447v8.27293c0 1.5724 1.28197 2.84441 2.84441 2.84441h8.27293c1.57246 0 2.8545-1.27201 2.8545-2.84441v-8.27293C22.29717 23.7964 21.01514 22.52439 19.44267 22.52439zM20.29404 33.6418c0 .46068-.3806.84128-.85137.84128h-8.27293c-.46068 0-.84128-.3806-.84128-.84128v-8.27293c0-.47077.3806-.84134.84128-.84134h8.27293c.47077 0 .85137.37057.85137.84134V33.6418zM19.44267 41.84462h-8.27293c-1.56244 0-2.84441 1.28197-2.84441 2.84441v8.27293c0 1.57246 1.28197 2.85443 2.84441 2.85443h8.27293c1.57246 0 2.8545-1.28197 2.8545-2.85443v-8.27293C22.29717 43.12659 21.01514 41.84462 19.44267 41.84462zM20.29404 52.96196c0 .47071-.3806.85131-.85137.85131h-8.27293c-.46068 0-.84128-.3806-.84128-.85131v-8.27293c0-.46074.3806-.84128.84128-.84128h8.27293c.47077 0 .85137.38054.85137.84128V52.96196z"/><path fill="#387bfe" d="M17.65992 29.29498l-2.7543 2.03321c-.44069.33047-1.08171.23034-1.41224-.22038l-1.02155-1.44226c-.33053-.45072-.22038-1.07168.23034-1.39219.45072-.33047 1.07168-.22031 1.39219.2304l.44069.61094 1.93301-1.43223c.45072-.33053 1.07168-.2304 1.40215.21029C18.20074 28.34348 18.10061 28.96445 17.65992 29.29498zM17.80009 48.61514l-2.7543 2.03321c-.18027.13021-.38054.20033-.60091.20033-.05007 0-.10013-.01003-.15026-.02005-.27038-.04004-.50078-.18027-.66101-.40065l-1.03158-1.43223c-.32051-.45066-.22038-1.08165.23034-1.40215s1.08171-.22038 1.40215.23034l.44069.61094 1.93307-1.4222c.44063-.33053 1.07162-.24036 1.40215.21035C18.33095 47.6637 18.24078 48.29469 17.80009 48.61514z"/><path fill="#387bfe" d="M61.14784,21.97355c-2.69421-1.91296-6.5202-1.00156-8.31298,1.73269l-0.21035,0.32051V9.45399c0-4.93771-4.01628-8.95399-8.95399-8.95399H17.51969c-2.19343,0-4.49701,0.84134-6.23973,2.54395l-7.16121,6.96089c-1.78275,1.72272-2.70424,4.05632-2.70424,6.41004v39.13113c0,4.93771,4.01628,8.95399,8.95399,8.95399h33.30202c4.93771,0,8.95399-4.01628,8.95399-8.95399V45.14977l10.00562-15.28388C64.3328,27.29185,63.71184,23.78638,61.14784,21.97355z M5.52096,11.43707l7.16115-6.96082c0.60098-0.60098,1.51237-1.21192,2.38373-1.50235v9.28446c0,0.84134-0.69108,1.5224-1.53236,1.5224H3.9485C4.39922,12.73915,4.94004,11.98798,5.52096,11.43707z M50.62138,55.54601c0,3.83595-3.11485,6.95086-6.95086,6.95086H10.3685c-3.83601,0-6.95086-3.11491-6.95086-6.95086V16.41488c0-0.21035,0.01003-0.42064,0.03008-0.63099h10.08576c1.953,0,3.53549-1.58249,3.53549-3.52553V2.52318c0.47077-0.03008,26.13085-0.02005,26.60155-0.02005c3.83601,0,6.95086,3.12488,6.95086,6.95086v17.63754L41.75756,40.6327c-0.70111,1.07168-1.19186,2.46387-1.27201,3.82598l-0.41061,6.63035c-0.03008,0.60091,0.26036,1.17181,0.76114,1.50235c0.52083,0.35052,1.17188,0.36055,1.69265,0.10013l5.90926-3.02468c0.77122-0.40065,1.47233-0.91146,2.1834-1.68268V55.54601z M42.60887,43.69748l5.66889,3.71583c-0.1903,0.16022-0.52083,0.3405-0.75117,0.47071l-5.4185,2.76433l0.3806-6.06948c0.02005-0.24036,0.05006-0.61094,0.12018-0.85136V43.69748z M49.75003,45.88089c-0.01003,0.02005-0.03001,0.04004-0.05006,0.06009l-6.31987-4.13647c0.02005-0.03001,0.03001-0.05006,0.05006-0.08014l9.03413-13.7915l6.3299,4.13647L49.75003,45.88089z M60.95754,28.76418l-1.07168,1.64252l-6.30984-4.13647l1.01159-1.57246l0.01003-0.00996c1.22188-1.72272,3.65567-2.2836,5.39839-1.08171C61.70871,24.83801,62.02922,27.14159,60.95754,28.76418z"/><path fill="#8dd1fe" d="M44.13126 9.33381l-.03008 3.94617L24.77101 13.2499l.03008-3.94617h19.30011C44.12124 9.30373 44.13126 9.32378 44.13126 9.33381zM19.44267 24.52752h-8.27293c-.46068 0-.84128.37057-.84128.84134v8.27293c0 .46068.3806.84128.84128.84128h8.27293c.47077 0 .85137-.3806.85137-.84128v-8.27293C20.29404 24.8981 19.91344 24.52752 19.44267 24.52752zM17.65992 29.29498l-2.7543 2.03321c-.44069.33047-1.08171.23034-1.41224-.22038l-1.02155-1.44226c-.33053-.45072-.22038-1.07168.23034-1.39219.45072-.33047 1.07168-.22031 1.39219.2304l.44069.61094 1.93301-1.43223c.45072-.33053 1.07168-.2304 1.40215.21029C18.20074 28.34348 18.10061 28.96445 17.65992 29.29498zM19.44267 43.84774h-8.27293c-.46068 0-.84128.38054-.84128.84128v8.27293c0 .47071.3806.85131.84128.85131h8.27293c.47077 0 .85137-.3806.85137-.85131v-8.27293C20.29404 44.22828 19.91344 43.84774 19.44267 43.84774zM17.80009 48.61514l-2.7543 2.03321c-.18027.13021-.38054.20033-.60091.20033-.05007 0-.10013-.01003-.15026-.02005-.27038-.04004-.50078-.18027-.66101-.40065l-1.03158-1.43223c-.32051-.45066-.22038-1.08165.23034-1.40215s1.08171-.22038 1.40215.23034l.44069.61094 1.93307-1.4222c.44063-.33053 1.07162-.24036 1.40215.21035C18.33095 47.6637 18.24078 48.29469 17.80009 48.61514zM48.27776 47.41331c-.1903.16022-.52083.3405-.75117.47071l-5.4185 2.76433.3806-6.06948c.02005-.24036.05006-.61094.12018-.85136v-.03002L48.27776 47.41331zM60.95754 28.76418l-1.07168 1.64252-6.30984-4.13647 1.01159-1.57246.01003-.00996c1.22188-1.72272 3.65567-2.2836 5.39839-1.08171C61.70871 24.83801 62.02922 27.14159 60.95754 28.76418zM15.06584 2.9739v9.28446c0 .84134-.69108 1.5224-1.53236 1.5224H3.9485c.45072-1.0416.99154-1.79278 1.57246-2.34369l7.16115-6.96082C13.28309 3.87527 14.19449 3.26433 15.06584 2.9739z"/></svg>
