<svg xmlns="http://www.w3.org/2000/svg" width="24" height="24" fill="none" viewBox="0 0 24 24">
  <path fill="gray" fill-rule="evenodd" d="M8.07008 2.25C8.48429 2.25 8.82008 2.58579 8.82008 3V3.24454C8.86151 3.23387 8.90308 3.22352 8.94478 3.21351C10.9542 2.73111 13.0458 2.73111 15.0552 3.21351C15.0969 3.22352 15.1385 3.23387 15.1799 3.24454V3C15.1799 2.58579 15.5157 2.25 15.9299 2.25C16.3441 2.25 16.6799 2.58579 16.6799 3V3.80188C18.7855 4.84323 20.353 6.80891 20.8978 9.18568C21.3674 11.2347 21.3674 13.367 20.8978 15.416C20.2205 18.3708 17.9626 20.6902 15.0552 21.3882C13.0458 21.8706 10.9543 21.8706 8.94478 21.3882C6.03739 20.6902 3.77946 18.3708 3.10223 15.416C2.63259 13.367 2.63259 11.2347 3.10223 9.18568C3.64698 6.8089 5.21449 4.84323 7.32008 3.80188V3C7.32008 2.58579 7.65587 2.25 8.07008 2.25ZM7.32021 5.52772C5.95587 6.42401 4.94923 7.8414 4.56432 9.52078C4.14523 11.3493 4.14523 13.2524 4.56432 15.0809C5.11769 17.4953 6.95607 19.3682 9.29493 19.9296C11.0742 20.3568 12.9258 20.3568 14.7051 19.9296C17.0439 19.3682 18.8823 17.4953 19.4357 15.0809C19.8548 13.2524 19.8548 11.3493 19.4357 9.52079C19.0508 7.8414 18.0441 6.42401 16.6798 5.52771C16.6723 5.93548 16.3395 6.26375 15.9299 6.26375C15.5157 6.26375 15.1799 5.92796 15.1799 5.51375V4.80616C15.0242 4.75544 14.8658 4.71066 14.7051 4.67207C12.9258 4.24493 11.0742 4.24493 9.29493 4.67207C9.1342 4.71066 8.97583 4.75544 8.82008 4.80616V5.51375C8.82008 5.92796 8.48429 6.26375 8.07008 6.26375C7.66053 6.26375 7.32766 5.93548 7.32021 5.52772Z" clip-rule="evenodd"/>
  <path fill="gray" fill-rule="evenodd" d="M11.0694 9.51191C11.339 9.8264 11.3026 10.2999 10.9881 10.5694L8.98809 12.2837C8.70723 12.5245 8.29277 12.5245 8.01191 12.2837L7.01191 11.4266C6.69741 11.157 6.66099 10.6835 6.93056 10.369C7.20012 10.0546 7.6736 10.0181 7.98809 10.2877L8.5 10.7265L10.0119 9.43056C10.3264 9.16099 10.7999 9.19741 11.0694 9.51191ZM12.25 11.2857C12.25 10.8715 12.5858 10.5357 13 10.5357H16.5C16.9142 10.5357 17.25 10.8715 17.25 11.2857C17.25 11.6999 16.9142 12.0357 16.5 12.0357H13C12.5858 12.0357 12.25 11.6999 12.25 11.2857ZM11.0694 13.7976C11.339 14.1121 11.3026 14.5856 10.9881 14.8552L8.98809 16.5694C8.70723 16.8102 8.29277 16.8102 8.01191 16.5694L7.01191 15.7123C6.69741 15.4427 6.66099 14.9693 6.93056 14.6548C7.20012 14.3403 7.6736 14.3038 7.98809 14.5734L8.5 15.0122L10.0119 13.7163C10.3264 13.4467 10.7999 13.4831 11.0694 13.7976ZM12.25 15.5714C12.25 15.1572 12.5858 14.8214 13 14.8214H16.5C16.9142 14.8214 17.25 15.1572 17.25 15.5714C17.25 15.9856 16.9142 16.3214 16.5 16.3214H13C12.5858 16.3214 12.25 15.9856 12.25 15.5714Z" clip-rule="evenodd"/>
</svg>
